<svg xmlns="http://www.w3.org/2000/svg" viewBox="0 0 512 512" width="100%" height="100%">
  <defs>
    <!-- Gradients -->
    <linearGradient id="bg-grad" x1="0%" y1="0%" x2="100%" y2="100%">
      <stop offset="0%" stop-color="#0c1222"/>
      <stop offset="100%" stop-color="#050810"/>
    </linearGradient>
    <linearGradient id="cyan-grad" x1="0%" y1="0%" x2="100%" y2="100%">
      <stop offset="0%" stop-color="#06b6d4"/>
      <stop offset="100%" stop-color="#0891b2"/>
    </linearGradient>
    <linearGradient id="amber-grad" x1="0%" y1="0%" x2="100%" y2="100%">
      <stop offset="0%" stop-color="#f59e0b"/>
      <stop offset="100%" stop-color="#d97706"/>
    </linearGradient>
    <linearGradient id="green-grad" x1="0%" y1="0%" x2="100%" y2="100%">
      <stop offset="0%" stop-color="#22c55e"/>
      <stop offset="100%" stop-color="#16a34a"/>
    </linearGradient>
    <linearGradient id="pillar-grad" x1="0%" y1="0%" x2="0%" y2="100%">
      <stop offset="0%" stop-color="#94a3b8" stop-opacity="0.6"/>
      <stop offset="100%" stop-color="#475569" stop-opacity="0.3"/>
    </linearGradient>
    <linearGradient id="roof-grad" x1="0%" y1="0%" x2="0%" y2="100%">
      <stop offset="0%" stop-color="#06b6d4" stop-opacity="0.9"/>
      <stop offset="100%" stop-color="#0e7490" stop-opacity="0.7"/>
    </linearGradient>
    <linearGradient id="center-glow" x1="0%" y1="0%" x2="100%" y2="100%">
      <stop offset="0%" stop-color="#06b6d4"/>
      <stop offset="50%" stop-color="#f59e0b"/>
      <stop offset="100%" stop-color="#22c55e"/>
    </linearGradient>

    <!-- Glow filters -->
    <filter id="glow-cyan" x="-50%" y="-50%" width="200%" height="200%">
      <feGaussianBlur in="SourceGraphic" stdDeviation="6" result="blur"/>
      <feMerge><feMergeNode in="blur"/><feMergeNode in="SourceGraphic"/></feMerge>
    </filter>
    <filter id="glow-amber" x="-50%" y="-50%" width="200%" height="200%">
      <feGaussianBlur in="SourceGraphic" stdDeviation="5" result="blur"/>
      <feMerge><feMergeNode in="blur"/><feMergeNode in="SourceGraphic"/></feMerge>
    </filter>
    <filter id="glow-green" x="-50%" y="-50%" width="200%" height="200%">
      <feGaussianBlur in="SourceGraphic" stdDeviation="5" result="blur"/>
      <feMerge><feMergeNode in="blur"/><feMergeNode in="SourceGraphic"/></feMerge>
    </filter>
    <filter id="glow-center" x="-100%" y="-100%" width="300%" height="300%">
      <feGaussianBlur in="SourceGraphic" stdDeviation="12" result="blur"/>
      <feMerge><feMergeNode in="blur"/><feMergeNode in="SourceGraphic"/></feMerge>
    </filter>
    <filter id="shadow" x="-10%" y="-10%" width="120%" height="130%">
      <feDropShadow dx="0" dy="4" stdDeviation="8" flood-color="#000" flood-opacity="0.5"/>
    </filter>
  </defs>

  <!-- Background -->
  <rect width="512" height="512" rx="108" fill="url(#bg-grad)"/>

  <!-- Subtle grid pattern -->
  <g opacity="0.04">
    <line x1="128" y1="0" x2="128" y2="512" stroke="#06b6d4" stroke-width="1"/>
    <line x1="256" y1="0" x2="256" y2="512" stroke="#06b6d4" stroke-width="1"/>
    <line x1="384" y1="0" x2="384" y2="512" stroke="#06b6d4" stroke-width="1"/>
    <line x1="0" y1="128" x2="512" y2="128" stroke="#06b6d4" stroke-width="1"/>
    <line x1="0" y1="256" x2="512" y2="256" stroke="#06b6d4" stroke-width="1"/>
    <line x1="0" y1="384" x2="512" y2="384" stroke="#06b6d4" stroke-width="1"/>
  </g>

  <!-- Ambient glow behind temple -->
  <ellipse cx="256" cy="280" rx="120" ry="100" fill="#06b6d4" opacity="0.04"/>

  <!-- === Temple Structure === -->
  <g filter="url(#shadow)">
    <!-- Base / Platform -->
    <rect x="118" y="370" width="276" height="14" rx="3" fill="#1e293b" opacity="0.8"/>
    <rect x="130" y="358" width="252" height="14" rx="3" fill="#334155" opacity="0.6"/>

    <!-- Three Pillars -->
    <rect x="162" y="210" width="22" height="150" rx="4" fill="url(#pillar-grad)"/>
    <rect x="245" y="210" width="22" height="150" rx="4" fill="url(#pillar-grad)"/>
    <rect x="328" y="210" width="22" height="150" rx="4" fill="url(#pillar-grad)"/>

    <!-- Pillar capitals (top detail) -->
    <rect x="156" y="204" width="34" height="10" rx="3" fill="#64748b" opacity="0.5"/>
    <rect x="239" y="204" width="34" height="10" rx="3" fill="#64748b" opacity="0.5"/>
    <rect x="322" y="204" width="34" height="10" rx="3" fill="#64748b" opacity="0.5"/>

    <!-- Roof / Pediment (triangle) -->
    <polygon points="256,130 136,204 376,204" fill="url(#roof-grad)" opacity="0.85"/>
    <polygon points="256,148 160,204 352,204" fill="#0a0e1a" opacity="0.3"/>

    <!-- Roof top accent line -->
    <line x1="136" y1="204" x2="376" y2="204" stroke="#06b6d4" stroke-width="2" opacity="0.5"/>
  </g>

  <!-- === Three Agent Orbs === -->

  <!-- Researcher orb (Cyan - left) -->
  <g filter="url(#glow-cyan)">
    <circle cx="173" cy="308" r="16" fill="none" stroke="url(#cyan-grad)" stroke-width="3"/>
    <circle cx="173" cy="308" r="6" fill="#06b6d4" opacity="0.8"/>
  </g>

  <!-- Skeptic orb (Amber - center) -->
  <g filter="url(#glow-amber)">
    <circle cx="256" cy="308" r="16" fill="none" stroke="url(#amber-grad)" stroke-width="3"/>
    <circle cx="256" cy="308" r="6" fill="#f59e0b" opacity="0.8"/>
  </g>

  <!-- Synthesizer orb (Green - right) -->
  <g filter="url(#glow-green)">
    <circle cx="339" cy="308" r="16" fill="none" stroke="url(#green-grad)" stroke-width="3"/>
    <circle cx="339" cy="308" r="6" fill="#22c55e" opacity="0.8"/>
  </g>

  <!-- Connection lines between orbs -->
  <line x1="189" y1="308" x2="240" y2="308" stroke="#06b6d4" stroke-width="1.5" opacity="0.3" stroke-dasharray="4,4"/>
  <line x1="272" y1="308" x2="323" y2="308" stroke="#f59e0b" stroke-width="1.5" opacity="0.3" stroke-dasharray="4,4"/>

  <!-- === Convergence Node at Pediment Center === -->
  <g filter="url(#glow-center)">
    <circle cx="256" cy="172" r="14" fill="url(#center-glow)" opacity="0.9"/>
    <circle cx="256" cy="172" r="7" fill="#fff" opacity="0.95"/>
  </g>

  <!-- Lines from orbs up to convergence node -->
  <line x1="173" y1="292" x2="248" y2="186" stroke="#06b6d4" stroke-width="1" opacity="0.15"/>
  <line x1="256" y1="292" x2="256" y2="186" stroke="#f59e0b" stroke-width="1" opacity="0.15"/>
  <line x1="339" y1="292" x2="264" y2="186" stroke="#22c55e" stroke-width="1" opacity="0.15"/>

  <!-- Corner accents -->
  <path d="M40,52 L40,40 L52,40" fill="none" stroke="#06b6d4" stroke-width="2" opacity="0.25"/>
  <path d="M472,52 L472,40 L460,40" fill="none" stroke="#06b6d4" stroke-width="2" opacity="0.25"/>
  <path d="M40,460 L40,472 L52,472" fill="none" stroke="#06b6d4" stroke-width="2" opacity="0.25"/>
  <path d="M472,460 L472,472 L460,472" fill="none" stroke="#06b6d4" stroke-width="2" opacity="0.25"/>
</svg>