<svg xmlns="http://www.w3.org/2000/svg" viewBox="0 0 1280 640" width="1280" height="640">
  <defs>
    <radialGradient id="glowC" cx="0%" cy="0%" r="70%">
      <stop offset="0%" stop-color="#06b6d4" stop-opacity="0.35"/><stop offset="50%" stop-color="#06b6d4" stop-opacity="0"/>
    </radialGradient>
    <radialGradient id="glowA" cx="100%" cy="100%" r="70%">
      <stop offset="0%" stop-color="#f59e0b" stop-opacity="0.35"/><stop offset="50%" stop-color="#f59e0b" stop-opacity="0"/>
    </radialGradient>
    <linearGradient id="title" x1="0" y1="0" x2="1" y2="1">
      <stop offset="0%" stop-color="#06b6d4"/><stop offset="100%" stop-color="#f59e0b"/>
    </linearGradient>
    <linearGradient id="leftFade" x1="0" y1="0" x2="1" y2="0">
      <stop offset="60%" stop-color="#0a0a0a"/><stop offset="100%" stop-color="#0a0a0a" stop-opacity="0"/>
    </linearGradient>
    <pattern id="grid" width="40" height="40" patternUnits="userSpaceOnUse">
      <path d="M40 0H0V40" fill="none" stroke="#ffffff" stroke-opacity="0.04" stroke-width="1"/>
    </pattern>
  </defs>

  <rect width="1280" height="640" fill="#0a0a0a"/>
  <rect width="1280" height="640" fill="url(#grid)"/>
  <rect width="1280" height="640" fill="url(#glowC)"/>
  <rect width="1280" height="640" fill="url(#glowA)"/>
  <rect x="0" y="0" width="620" height="640" fill="url(#leftFade)"/>

  <!-- left panel (native) -->
  <g transform="translate(48, 196)"><path d="M44.9182177734375 0.0V-9.212326171874999L55.727999999999994 -10.87887744140625V-10.42944873046875H61.760408203124996V0.0ZM14.244380859375 0.0Q11.408635986328123 0.0 9.045515258789061 -1.3971972656249998Q6.68239453125 -2.7943945312499996 5.2851972656249995 -5.157515258789062Q3.888 -7.5206359863281245 3.888 -10.356380859375V-41.483619140624995Q3.888 -44.31936401367187 5.2851972656249995 -46.682484741210935Q6.68239453125 -49.04560546875 9.045515258789061 -50.44280273437499Q11.408635986328123 -51.839999999999996 14.244380859375 -51.839999999999996H45.37161914062499Q48.184376770019526 -51.839999999999996 50.52834146118164 -50.44280273437499Q52.87230615234375 -49.04560546875 54.30015307617187 -46.682484741210935Q55.727999999999994 -44.31936401367187 55.727999999999994 -41.483619140624995V-10.356380859375Q55.727999999999994 -7.5206359863281245 54.30015307617187 -5.157515258789062Q52.87230615234375 -2.7943945312499996 50.52834146118164 -1.3971972656249998Q48.184376770019526 0.0 45.37161914062499 0.0ZM14.67347607421875 -10.42944873046875H44.81992529296875Q44.99113623046875 -10.42944873046875 45.114194091796875 -10.552506591796874Q45.237251953124996 -10.675564453124998 45.237251953124996 -10.846775390625V-40.993224609375Q45.237251953124996 -41.164435546875 45.114194091796875 -41.28749340820312Q44.99113623046875 -41.41055126953125 44.81992529296875 -41.41055126953125H14.67347607421875Q14.50226513671875 -41.41055126953125 14.379207275390623 -41.28749340820312Q14.256149414062499 -41.164435546875 14.256149414062499 -40.993224609375V-10.846775390625Q14.256149414062499 -10.675564453124998 14.379207275390623 -10.552506591796874Q14.50226513671875 -10.42944873046875 14.67347607421875 -10.42944873046875Z M77.64718359375 0.0Q74.85741320800781 0.0 72.53260455322265 -1.4025476074218748Q70.2077958984375 -2.8050952148437496 68.83589794921875 -5.110747833251953Q67.464 -7.416400451660156 67.464 -10.18318359375V-41.76H77.72025146484374V-10.673578124999999Q77.72025146484374 -10.502367187499999 77.84330932617186 -10.379309326171875Q77.9663671875 -10.25625146484375 78.13757812499999 -10.25625146484375H99.14782324218748Q99.31903417968749 -10.25625146484375 99.4474423828125 -10.379309326171875Q99.5758505859375 -10.502367187499999 99.5758505859375 -10.673578124999999V-41.76H109.83210205078124V-10.18318359375Q109.83210205078124 -7.416400451660156 108.46020410156248 -5.110747833251953Q107.08830615234373 -2.8050952148437496 104.7863125521199 -1.4025476074218748Q102.48431895189606 0.0 99.6382177734375 0.0H77.64718359375Z M127.54318359374999 0.0Q124.77640045166014 0.0 122.47074783325193 -1.4025476074218748Q120.16509521484373 -2.8050952148437496 118.76254760742185 -5.110747833251953Q117.35999999999999 -7.416400451660156 117.35999999999999 -10.18318359375V-31.576816406249996Q117.35999999999999 -34.34359954833984 118.76254760742185 -36.64925216674804Q120.16509521484373 -38.954904785156245 122.47074783325193 -40.357452392578125Q124.77640045166014 -41.76 127.54318359374999 -41.76H149.5342177734375Q152.37513634253327 -41.76 154.67293812636075 -40.365114807128904Q156.97073991018826 -38.97022961425781 158.34942098048475 -36.64542095947266Q159.72810205078122 -34.3206123046875 159.72810205078122 -31.576816406249996V-10.18318359375Q159.72810205078122 -7.416400451660156 158.35620410156247 -5.110747833251953Q156.98430615234372 -2.8050952148437496 154.68231255211987 -1.4025476074218748Q152.38031895189604 0.0 149.5342177734375 0.0H127.54318359374999ZM128.033578125 -10.25625146484375H149.0438232421875Q149.21503417968748 -10.25625146484375 149.3380920410156 -10.379309326171875Q149.46114990234372 -10.502367187499999 149.46114990234372 -10.673578124999999V-31.086421875Q149.46114990234372 -31.2576328125 149.3380920410156 -31.380690673828123Q149.21503417968748 -31.503748535156248 149.0438232421875 -31.503748535156248H128.033578125Q127.86236718749998 -31.503748535156248 127.73930932617186 -31.380690673828123Q127.61625146484374 -31.2576328125 127.61625146484374 -31.086421875V-10.673578124999999Q127.61625146484374 -10.502367187499999 127.73930932617186 -10.379309326171875Q127.86236718749998 -10.25625146484375 128.033578125 -10.25625146484375Z M167.256 0.0V-31.576816406249996Q167.256 -34.34359954833984 168.6585476074219 -36.64925216674804Q170.06109521484376 -38.954904785156245 172.38590386962892 -40.357452392578125Q174.71071252441405 -41.76 177.50048291015625 -41.76H200.60468701171874V-31.503748535156248H177.929578125Q177.7583671875 -31.503748535156248 177.63530932617186 -31.380690673828123Q177.51225146484376 -31.2576328125 177.51225146484376 -31.086421875V0.0Z M215.23918359375 0.0Q212.44941320800783 0.0 210.12460455322267 -1.4025476074218748Q207.7997958984375 -2.8050952148437496 206.42789794921876 -5.110747833251953Q205.056 -7.416400451660156 205.056 -10.18318359375V-41.76H215.31225146484377V-10.673578124999999Q215.31225146484377 -10.502367187499999 215.43530932617188 -10.379309326171875Q215.5583671875 -10.25625146484375 215.72957812500002 -10.25625146484375H236.7398232421875Q236.9110341796875 -10.25625146484375 237.03944238281252 -10.379309326171875Q237.16785058593752 -10.502367187499999 237.16785058593752 -10.673578124999999V-41.76H247.42410205078124V-10.18318359375Q247.42410205078124 -7.416400451660156 246.0522041015625 -5.110747833251953Q244.68030615234375 -2.8050952148437496 242.3783125521199 -1.4025476074218748Q240.07631895189607 0.0 237.23021777343752 0.0H215.23918359375Z M255.168 0.0V-41.76H306.151646484375Q308.99774766283355 -41.76 311.2997412630574 -40.357452392578125Q313.60173486328125 -38.954904785156245 314.9682824707031 -36.64925216674804Q316.334830078125 -34.34359954833984 316.334830078125 -31.576816406249996V0.0H306.15057861328125V-31.086421875Q306.15057861328125 -31.2576328125 306.02217041015626 -31.380690673828123Q305.8937622070313 -31.503748535156248 305.72255126953127 -31.503748535156248H291.3742177734375Q291.2030068359375 -31.503748535156248 291.07994897460935 -31.380690673828123Q290.95689111328124 -31.2576328125 290.95689111328124 -31.086421875V0.0H280.6286396484375V-31.086421875Q280.6286396484375 -31.2576328125 280.50558178710935 -31.380690673828123Q280.38252392578124 -31.503748535156248 280.21131298828124 -31.503748535156248H265.8522788085937Q265.6810678710938 -31.503748535156248 265.55801000976567 -31.380690673828123Q265.4349521484375 -31.2576328125 265.4349521484375 -31.086421875V0.0Z" fill="url(#title)"/></g>
  <text x="48" y="238" font-family="ui-sans-serif,-apple-system,'Segoe UI',Roboto,Helvetica,Arial,sans-serif" font-size="22" font-weight="500" letter-spacing="0" fill="#94A3B8">Offline multi-agent council that debates</text>
  <text x="48" y="268" font-family="ui-sans-serif,-apple-system,'Segoe UI',Roboto,Helvetica,Arial,sans-serif" font-size="22" font-weight="500" letter-spacing="0" fill="#94A3B8">your documents to a cited answer.</text>
  <text x="48" y="322" font-family="ui-monospace,SFMono-Regular,Menlo,Consolas,'Liberation Mono',monospace" font-size="16" fill="#F8FAFC"><tspan fill="#06b6d4">→ </tspan>3-agent debate: Researcher, Skeptic, Synthesizer</text><text x="48" y="352" font-family="ui-monospace,SFMono-Regular,Menlo,Consolas,'Liberation Mono',monospace" font-size="16" fill="#F8FAFC"><tspan fill="#06b6d4">→ </tspan>Citations on ≥95% of factual claims</text><text x="48" y="382" font-family="ui-monospace,SFMono-Regular,Menlo,Consolas,'Liberation Mono',monospace" font-size="16" fill="#F8FAFC"><tspan fill="#06b6d4">→ </tspan>Contradiction detection in corpus</text><text x="48" y="412" font-family="ui-monospace,SFMono-Regular,Menlo,Consolas,'Liberation Mono',monospace" font-size="16" fill="#F8FAFC"><tspan fill="#06b6d4">→ </tspan>Multi-query RAG retrieval</text><text x="48" y="442" font-family="ui-monospace,SFMono-Regular,Menlo,Consolas,'Liberation Mono',monospace" font-size="16" fill="#F8FAFC"><tspan fill="#06b6d4">→ </tspan>Air-gap verified (0 connections)</text>
  <rect x="48" y="486" width="109" height="26" rx="13" fill="rgba(255,255,255,0.04)" stroke="rgba(255,255,255,0.08)"/><text x="103" y="503" font-family="ui-monospace,SFMono-Regular,Menlo,Consolas,'Liberation Mono',monospace" font-size="12" fill="#94A3B8" text-anchor="middle">License: MIT</text><rect x="165.2" y="486" width="194" height="26" rx="13" fill="rgba(255,255,255,0.04)" stroke="rgba(255,255,255,0.08)"/><text x="262" y="503" font-family="ui-monospace,SFMono-Regular,Menlo,Consolas,'Liberation Mono',monospace" font-size="12" fill="#94A3B8" text-anchor="middle">Built for QVAC Hackathon</text><rect x="367.59999999999997" y="486" width="109" height="26" rx="13" fill="rgba(255,255,255,0.04)" stroke="rgba(255,255,255,0.08)"/><text x="422" y="503" font-family="ui-monospace,SFMono-Regular,Menlo,Consolas,'Liberation Mono',monospace" font-size="12" fill="#94A3B8" text-anchor="middle">Vite + React</text><rect x="484.79999999999995" y="486" width="88" height="26" rx="13" fill="rgba(255,255,255,0.04)" stroke="rgba(255,255,255,0.08)"/><text x="529" y="503" font-family="ui-monospace,SFMono-Regular,Menlo,Consolas,'Liberation Mono',monospace" font-size="12" fill="#94A3B8" text-anchor="middle">Llama 3.2</text>

  <!-- original right-side diagram (native + animated), kept verbatim -->
  <g transform="translate(512, 0)">
    <!-- Connections (back layer) -->
    <line x1="140" y1="285" x2="200" y2="285" stroke="rgba(255,255,255,0.08)" stroke-width="1.5" stroke-dasharray="4 4" />
    <line x1="290" y1="275" x2="358" y2="195" stroke="rgba(6,182,212,0.15)" stroke-width="1.5" stroke-dasharray="4 4" />
    <line x1="290" y1="285" x2="358" y2="315" stroke="rgba(245,158,11,0.15)" stroke-width="1.5" stroke-dasharray="4 4" />
    <line x1="290" y1="295" x2="358" y2="450" stroke="rgba(34,197,94,0.15)" stroke-width="1.5" stroke-dasharray="4 4" />
    <line x1="400" y1="222" x2="400" y2="278" stroke="rgba(255,255,255,0.06)" stroke-width="1.5" />
    <line x1="400" y1="362" x2="400" y2="418" stroke="rgba(255,255,255,0.06)" stroke-width="1.5" />
    <line x1="442" y1="450" x2="560" y2="340" stroke="rgba(34,197,94,0.12)" stroke-width="1.5" stroke-dasharray="4 4" />

    <!-- Animated dots (middle layer) -->
    <circle r="3" fill="rgba(255,255,255,0.4)">
      <animateMotion dur="2s" repeatCount="indefinite" calcMode="spline" keyPoints="0;1" keyTimes="0;1" keySplines="0.4 0 0.2 1" path="M 140 285 L 200 285" />
    </circle>
    <circle r="3" fill="#06b6d4">
      <animateMotion dur="2.5s" repeatCount="indefinite" calcMode="spline" keyPoints="0;1" keyTimes="0;1" keySplines="0.4 0 0.2 1" path="M 290 275 L 358 195" />
    </circle>
    <circle r="3" fill="#f59e0b">
      <animateMotion dur="2.8s" repeatCount="indefinite" calcMode="spline" keyPoints="0;1" keyTimes="0;1" keySplines="0.4 0 0.2 1" path="M 290 285 L 358 315" />
    </circle>
    <circle r="3" fill="#22c55e">
      <animateMotion dur="3.2s" repeatCount="indefinite" calcMode="spline" keyPoints="0;1" keyTimes="0;1" keySplines="0.4 0 0.2 1" path="M 290 295 L 358 450" />
    </circle>
    <circle r="3" fill="rgba(255,255,255,0.3)">
      <animateMotion dur="2s" repeatCount="indefinite" calcMode="spline" keyPoints="0;1" keyTimes="0;1" keySplines="0.4 0 0.2 1" path="M 400 222 L 400 278" />
    </circle>
    <circle r="3" fill="rgba(255,255,255,0.3)">
      <animateMotion dur="2.2s" repeatCount="indefinite" calcMode="spline" keyPoints="0;1" keyTimes="0;1" keySplines="0.4 0 0.2 1" path="M 400 362 L 400 418" />
    </circle>
    <circle r="3" fill="#22c55e">
      <animateMotion dur="2.6s" repeatCount="indefinite" calcMode="spline" keyPoints="0;1" keyTimes="0;1" keySplines="0.4 0 0.2 1" path="M 442 450 L 560 340" />
    </circle>

    <!-- Nodes (front layer) -->
    <!-- Corpus -->
    <rect x="40" y="250" width="100" height="80" rx="10" fill="#111827" stroke="#475569" stroke-width="1.5" />
    <rect x="55" y="265" width="60" height="4" rx="2" fill="rgba(255,255,255,0.25)" />
    <rect x="55" y="275" width="70" height="4" rx="2" fill="rgba(255,255,255,0.18)" />
    <rect x="55" y="285" width="50" height="4" rx="2" fill="rgba(255,255,255,0.12)" />
    <text x="90" y="350" font-family="JetBrains Mono, monospace" font-size="11px" fill="#cbd5e1" text-anchor="middle">Corpus</text>

    <!-- RAG -->
    <rect x="200" y="260" width="90" height="50" rx="10" fill="#0b1a1f" stroke="#06b6d4" stroke-width="1.5" />
    <text x="245" y="288" font-family="JetBrains Mono, monospace" font-size="10px" fill="#06b6d4" text-anchor="middle">ragSearch</text>

    <!-- Researcher -->
    <circle cx="400" cy="180" r="42" fill="#0b1a1f" stroke="#06b6d4" stroke-width="1.5" />
    <text x="400" y="176" font-family="JetBrains Mono, monospace" font-size="11px" fill="#06b6d4" text-anchor="middle">Researcher</text>
    <text x="400" y="192" font-family="JetBrains Mono, monospace" font-size="9px" fill="#475569" text-anchor="middle">propose</text>

    <!-- Skeptic -->
    <circle cx="400" cy="320" r="42" fill="#161209" stroke="#f59e0b" stroke-width="1.5" />
    <text x="400" y="316" font-family="JetBrains Mono, monospace" font-size="11px" fill="#f59e0b" text-anchor="middle">Skeptic</text>
    <text x="400" y="332" font-family="JetBrains Mono, monospace" font-size="9px" fill="#475569" text-anchor="middle">challenge</text>

    <!-- Synthesizer -->
    <circle cx="400" cy="460" r="42" fill="#0c1612" stroke="#22c55e" stroke-width="1.5" />
    <text x="400" y="456" font-family="JetBrains Mono, monospace" font-size="11px" fill="#22c55e" text-anchor="middle">Synthesizer</text>
    <text x="400" y="472" font-family="JetBrains Mono, monospace" font-size="9px" fill="#475569" text-anchor="middle">reconcile</text>

    <!-- Output -->
    <rect x="560" y="300" width="130" height="60" rx="10" fill="#0c1612" stroke="#22c55e" stroke-width="1.5" />
    <text x="625" y="328" font-family="JetBrains Mono, monospace" font-size="11px" fill="#22c55e" text-anchor="middle">Cited Answer</text>
    <text x="625" y="345" font-family="JetBrains Mono, monospace" font-size="9px" fill="#475569" text-anchor="middle">confidence: HIGH</text>

    <!-- Labels -->
    <text x="415" y="252" font-family="JetBrains Mono, monospace" font-size="8px" fill="#94A3B8">claim</text>
    <text x="415" y="392" font-family="JetBrains Mono, monospace" font-size="8px" fill="#94A3B8">rebuttal</text>

    <!-- Badges -->
    <rect x="200" y="570" width="100" height="24" rx="12" fill="#0b1a1f" stroke="rgba(6,182,212,0.3)" stroke-width="1" />
    <text x="250" y="587" font-family="JetBrains Mono, monospace" font-size="10px" fill="#06b6d4" text-anchor="middle">Llama 3.2</text>

    <rect x="320" y="570" width="100" height="24" rx="12" fill="#161209" stroke="rgba(245,158,11,0.3)" stroke-width="1" />
    <text x="370" y="587" font-family="JetBrains Mono, monospace" font-size="10px" fill="#f59e0b" text-anchor="middle">GTE-Large</text>

    <rect x="440" y="570" width="100" height="24" rx="12" fill="#0c1612" stroke="rgba(34,197,94,0.3)" stroke-width="1" />
    <text x="490" y="587" font-family="JetBrains Mono, monospace" font-size="10px" fill="#22c55e" text-anchor="middle">Air-Gapped</text>
  </g>
</svg>
