<svg xmlns="http://www.w3.org/2000/svg" viewBox="0 0 1280 640" width="1280" height="640" font-family="ui-sans-serif,-apple-system,'Segoe UI',Roboto,Helvetica,Arial,sans-serif">
  <defs>
    <radialGradient id="glowC" cx="0%" cy="0%" r="75%">
      <stop offset="0%" stop-color="#06b6d4" stop-opacity="0.30"/><stop offset="55%" stop-color="#06b6d4" stop-opacity="0"/>
    </radialGradient>
    <radialGradient id="glowA" cx="100%" cy="100%" r="75%">
      <stop offset="0%" stop-color="#f59e0b" stop-opacity="0.26"/><stop offset="55%" stop-color="#f59e0b" stop-opacity="0"/>
    </radialGradient>
    <linearGradient id="wm" x1="0" y1="0" x2="1" y2="1">
      <stop offset="0%" stop-color="#ffffff"/><stop offset="100%" stop-color="#06b6d4"/>
    </linearGradient>
    <pattern id="grid" width="40" height="40" patternUnits="userSpaceOnUse">
      <path d="M40 0H0V40" fill="none" stroke="#ffffff" stroke-opacity="0.04" stroke-width="1"/>
    </pattern>
  </defs>

  <rect width="1280" height="640" fill="#0a0e14"/>
  <rect width="1280" height="640" fill="url(#grid)"/>
  <rect width="1280" height="640" fill="url(#glowC)"/>
  <rect width="1280" height="640" fill="url(#glowA)"/>
  <line x1="660" y1="64" x2="660" y2="576" stroke="#ffffff" stroke-opacity="0.06"/>

  <!-- left -->
  <text x="66" y="120" font-family="ui-sans-serif,-apple-system,'Segoe UI',Roboto,Helvetica,Arial,sans-serif" font-size="13" font-weight="700" letter-spacing="3" fill="#06b6d4" text-anchor="start" opacity="1">MULTI-AGENT DOCUMENT COUNCIL</text>
  <g transform="translate(64, 210)"><path d="M54.9000439453125 0.0V-11.259509765625L68.112 -13.296405761718749V-12.74710400390625H75.484943359375V0.0ZM17.409798828125 0.0Q13.943888427734374 0.0 11.055629760742185 -1.7076855468749998Q8.167371093749999 -3.4153710937499997 6.459685546874999 -6.303629760742187Q4.752 -9.191888427734375 4.752 -12.657798828125V-50.702201171875Q4.752 -54.16811157226562 6.459685546874999 -57.05637023925781Q8.167371093749999 -59.944628906249996 11.055629760742185 -61.652314453125Q13.943888427734374 -63.36 17.409798828125 -63.36H55.454201171875Q58.89201605224609 -63.36 61.75686178588867 -61.652314453125Q64.62170751953124 -59.944628906249996 66.36685375976562 -57.05637023925781Q68.112 -54.16811157226562 68.112 -50.702201171875V-12.657798828125Q68.112 -9.191888427734375 66.36685375976562 -6.303629760742187Q64.62170751953124 -3.4153710937499997 61.75686178588867 -1.7076855468749998Q58.89201605224609 0.0 55.454201171875 0.0ZM17.93424853515625 -12.74710400390625H54.77990869140625Q54.98916650390625 -12.74710400390625 55.13957055664062 -12.897508056640625Q55.289974609374994 -13.047912109375 55.289974609374994 -13.257169921874999V-50.102830078124995Q55.289974609374994 -50.312087890624994 55.13957055664062 -50.46249194335937Q54.98916650390625 -50.61289599609375 54.77990869140625 -50.61289599609375H17.93424853515625Q17.724990722656248 -50.61289599609375 17.57458666992187 -50.46249194335937Q17.424182617187498 -50.312087890624994 17.424182617187498 -50.102830078124995V-13.257169921874999Q17.424182617187498 -13.047912109375 17.57458666992187 -12.897508056640625Q17.724990722656248 -12.74710400390625 17.93424853515625 -12.74710400390625Z M94.90211328125 0.0Q91.49239392089844 0.0 88.65096112060547 -1.7142248535156248Q85.8095283203125 -3.4284497070312496 84.13276416015626 -6.2464695739746094Q82.456 -9.064489440917969 82.456 -12.44611328125V-51.04H94.99141845703124V-13.045484375Q94.99141845703124 -12.836226562499998 95.14182250976563 -12.685822509765625Q95.2922265625 -12.53541845703125 95.501484375 -12.53541845703125H121.18067285156249Q121.38993066406249 -12.53541845703125 121.5468740234375 -12.685822509765625Q121.7038173828125 -12.836226562499998 121.7038173828125 -13.045484375V-51.04H134.23923583984376V-12.44611328125Q134.23923583984376 -9.064489440917969 132.56247167968752 -6.2464695739746094Q130.88570751953125 -3.4284497070312496 128.07215978592433 -1.7142248535156248Q125.2586120523174 0.0 121.7800439453125 0.0H94.90211328125Z M155.88611328125 0.0Q152.50448944091798 0.0 149.68646957397462 -1.7142248535156248Q146.86844970703126 -3.4284497070312496 145.15422485351564 -6.2464695739746094Q143.44 -9.064489440917969 143.44 -12.44611328125V-38.59388671875Q143.44 -41.97551055908203 145.15422485351564 -44.793530426025384Q146.86844970703126 -47.611550292968744 149.68646957397462 -49.325775146484375Q152.50448944091798 -51.04 155.88611328125 -51.04H182.7640439453125Q186.23627775198514 -51.04 189.04470215444096 -49.33514031982422Q191.85312655689677 -47.63028063964843 193.53818119837024 -44.78884783935547Q195.22323583984374 -41.9474150390625 195.22323583984374 -38.59388671875V-12.44611328125Q195.22323583984374 -9.064489440917969 193.5464716796875 -6.2464695739746094Q191.86970751953123 -3.4284497070312496 189.0561597859243 -1.7142248535156248Q186.2426120523174 0.0 182.7640439453125 0.0H155.88611328125ZM156.485484375 -12.53541845703125H182.1646728515625Q182.3739306640625 -12.53541845703125 182.5243347167969 -12.685822509765625Q182.67473876953125 -12.836226562499998 182.67473876953125 -13.045484375V-37.994515625Q182.67473876953125 -38.2037734375 182.5243347167969 -38.35417749023438Q182.3739306640625 -38.50458154296875 182.1646728515625 -38.50458154296875H156.485484375Q156.2762265625 -38.50458154296875 156.1258225097656 -38.35417749023438Q155.97541845703125 -38.2037734375 155.97541845703125 -37.994515625V-13.045484375Q155.97541845703125 -12.836226562499998 156.1258225097656 -12.685822509765625Q156.2762265625 -12.53541845703125 156.485484375 -12.53541845703125Z M204.42399999999998 0.0V-38.59388671875Q204.42399999999998 -41.97551055908203 206.13822485351562 -44.793530426025384Q207.85244970703124 -47.611550292968744 210.6938825073242 -49.325775146484375Q213.53531530761717 -51.04 216.94503466796874 -51.04H245.18350634765625V-38.50458154296875H217.46948437499998Q217.26022656249998 -38.50458154296875 217.1098225097656 -38.35417749023438Q216.95941845703123 -38.2037734375 216.95941845703123 -37.994515625V0.0Z M263.07011328125 0.0Q259.6603939208984 0.0 256.8189611206054 -1.7142248535156248Q253.97752832031247 -3.4284497070312496 252.30076416015623 -6.2464695739746094Q250.62399999999997 -9.064489440917969 250.62399999999997 -12.44611328125V-51.04H263.1594184570312V-13.045484375Q263.1594184570312 -12.836226562499998 263.3098225097656 -12.685822509765625Q263.4602265625 -12.53541845703125 263.66948437499997 -12.53541845703125H289.34867285156247Q289.5579306640625 -12.53541845703125 289.71487402343746 -12.685822509765625Q289.8718173828125 -12.836226562499998 289.8718173828125 -13.045484375V-51.04H302.40723583984374V-12.44611328125Q302.40723583984374 -9.064489440917969 300.7304716796875 -6.2464695739746094Q299.05370751953126 -3.4284497070312496 296.24015978592433 -1.7142248535156248Q293.4266120523174 0.0 289.94804394531246 0.0H263.07011328125Z M311.872 0.0V-51.04H374.185345703125Q377.6639138101299 -51.04 380.4774615437368 -49.325775146484375Q383.29100927734373 -47.611550292968744 384.96123413085934 -44.793530426025384Q386.631458984375 -41.97551055908203 386.631458984375 -38.59388671875V0.0H374.18404052734377V-37.994515625Q374.18404052734377 -38.2037734375 374.02709716796875 -38.35417749023438Q373.8701538085937 -38.50458154296875 373.66089599609376 -38.50458154296875H356.1240439453125Q355.9147861328125 -38.50458154296875 355.7643820800781 -38.35417749023438Q355.61397802734376 -38.2037734375 355.61397802734376 -37.994515625V0.0H342.9905595703125V-37.994515625Q342.9905595703125 -38.2037734375 342.8401555175781 -38.35417749023438Q342.68975146484377 -38.50458154296875 342.48049365234374 -38.50458154296875H324.9305629882813Q324.72130517578125 -38.50458154296875 324.57090112304684 -38.35417749023438Q324.4204970703125 -38.2037734375 324.4204970703125 -37.994515625V0.0Z" fill="url(#wm)"/></g>
  <text x="66" y="250" font-family="ui-sans-serif,-apple-system,'Segoe UI',Roboto,Helvetica,Arial,sans-serif" font-size="19" font-weight="500" letter-spacing="0" fill="#cbd5e1" text-anchor="start" opacity="1">Offline AI agents that debate your documents</text>
  <text x="66" y="276" font-family="ui-sans-serif,-apple-system,'Segoe UI',Roboto,Helvetica,Arial,sans-serif" font-size="19" font-weight="500" letter-spacing="0" fill="#cbd5e1" text-anchor="start" opacity="1">to a cited answer — the network never on.</text>
  <circle cx="68" cy="367" r="5" fill="#06b6d4"/><text x="86" y="372" font-family="ui-sans-serif,-apple-system,'Segoe UI',Roboto,Helvetica,Arial,sans-serif" font-size="15.5" font-weight="400" letter-spacing="0" fill="#cbd5e1" text-anchor="start" opacity="1">3-agent debate — Researcher · Skeptic · Synthesizer</text><circle cx="68" cy="401" r="5" fill="#f59e0b"/><text x="86" y="406" font-family="ui-sans-serif,-apple-system,'Segoe UI',Roboto,Helvetica,Arial,sans-serif" font-size="15.5" font-weight="400" letter-spacing="0" fill="#cbd5e1" text-anchor="start" opacity="1">Skeptic catches planted contradictions</text><circle cx="68" cy="435" r="5" fill="#22c55e"/><text x="86" y="440" font-family="ui-sans-serif,-apple-system,'Segoe UI',Roboto,Helvetica,Arial,sans-serif" font-size="15.5" font-weight="400" letter-spacing="0" fill="#cbd5e1" text-anchor="start" opacity="1">Citations on every factual claim (100% in bench)</text><circle cx="68" cy="469" r="5" fill="#ef4444"/><text x="86" y="474" font-family="ui-sans-serif,-apple-system,'Segoe UI',Roboto,Helvetica,Arial,sans-serif" font-size="15.5" font-weight="400" letter-spacing="0" fill="#cbd5e1" text-anchor="start" opacity="1">Air-gap verified — 0 outbound connections</text>
  <rect x="64" y="524" width="36" height="24" rx="12" fill="rgba(255,255,255,0.05)" stroke="rgba(255,255,255,0.10)"/><text x="81.8" y="540" font-family="ui-monospace,SFMono-Regular,Menlo,Consolas,'Liberation Mono',monospace" font-size="11.5" font-weight="600" letter-spacing="0.3" fill="#94a3b8" text-anchor="middle" opacity="1">MIT</text><rect x="109.6" y="524" width="115" height="24" rx="12" fill="rgba(255,255,255,0.05)" stroke="rgba(255,255,255,0.10)"/><text x="167.0" y="540" font-family="ui-monospace,SFMono-Regular,Menlo,Consolas,'Liberation Mono',monospace" font-size="11.5" font-weight="600" letter-spacing="0.3" fill="#94a3b8" text-anchor="middle" opacity="1">QVAC Hackathon</text><rect x="234.39999999999998" y="524" width="100" height="24" rx="12" fill="rgba(255,255,255,0.05)" stroke="rgba(255,255,255,0.10)"/><text x="284.59999999999997" y="540" font-family="ui-monospace,SFMono-Regular,Menlo,Consolas,'Liberation Mono',monospace" font-size="11.5" font-weight="600" letter-spacing="0.3" fill="#94a3b8" text-anchor="middle" opacity="1">Llama 3.2 1B</text><rect x="344.79999999999995" y="524" width="79" height="24" rx="12" fill="rgba(255,255,255,0.05)" stroke="rgba(255,255,255,0.10)"/><text x="384.19999999999993" y="540" font-family="ui-monospace,SFMono-Regular,Menlo,Consolas,'Liberation Mono',monospace" font-size="11.5" font-weight="600" letter-spacing="0.3" fill="#94a3b8" text-anchor="middle" opacity="1">GTE-Large</text><rect x="433.59999999999997" y="524" width="79" height="24" rx="12" fill="rgba(255,255,255,0.05)" stroke="rgba(255,255,255,0.10)"/><text x="472.99999999999994" y="540" font-family="ui-monospace,SFMono-Regular,Menlo,Consolas,'Liberation Mono',monospace" font-size="11.5" font-weight="600" letter-spacing="0.3" fill="#94a3b8" text-anchor="middle" opacity="1">@qvac/sdk</text>

  <!-- right pipeline -->
  
  <g>
    <rect x="730.0" y="64" width="420" height="60" rx="12" fill="rgba(255,255,255,0.03)" stroke="rgba(255,255,255,0.08)" stroke-dasharray="4 4"/>
    <text x="754.0" y="91" font-family="ui-sans-serif,-apple-system,'Segoe UI',Roboto,Helvetica,Arial,sans-serif" font-size="14" font-weight="700" letter-spacing="1.5" fill="#cbd5e1" text-anchor="start" opacity="1">PRIVATE CORPUS</text>
    <text x="754.0" y="112" font-family="ui-monospace,SFMono-Regular,Menlo,Consolas,'Liberation Mono',monospace" font-size="12.5" font-weight="400" letter-spacing="0" fill="#94a3b8" text-anchor="start" opacity="1">embed + ragSearch  ·  local vector store</text>
  </g><line x1="940" y1="124" x2="940" y2="161" stroke="#94a3b8" stroke-width="2" opacity="0.6"/><path d="M935 159 L940 166 L945 159" fill="none" stroke="#94a3b8" stroke-width="2" opacity="0.7"/>
  <g>
    <rect x="730.0" y="168" width="420" height="60" rx="12" fill="rgba(255,255,255,0.045)" stroke="rgba(255,255,255,0.10)"/>
    <rect x="730.0" y="168" width="5" height="60" rx="2.5" fill="#06b6d4"/>
    <circle cx="760.0" cy="198.0" r="7" fill="#06b6d4"/>
    <text x="782.0" y="195" font-family="ui-sans-serif,-apple-system,'Segoe UI',Roboto,Helvetica,Arial,sans-serif" font-size="17" font-weight="700" letter-spacing="1.5" fill="#f1f5f9" text-anchor="start" opacity="1">RESEARCHER</text>
    <text x="782.0" y="216" font-family="ui-monospace,SFMono-Regular,Menlo,Consolas,'Liberation Mono',monospace" font-size="12.5" font-weight="400" letter-spacing="0" fill="#94a3b8" text-anchor="start" opacity="1">retrieve evidence  ·  propose answer</text>
  </g><line x1="940" y1="228" x2="940" y2="265" stroke="#94a3b8" stroke-width="2" opacity="0.6"/><path d="M935 263 L940 270 L945 263" fill="none" stroke="#94a3b8" stroke-width="2" opacity="0.7"/>
  <g>
    <rect x="730.0" y="272" width="420" height="60" rx="12" fill="rgba(255,255,255,0.045)" stroke="rgba(255,255,255,0.10)"/>
    <rect x="730.0" y="272" width="5" height="60" rx="2.5" fill="#f59e0b"/>
    <circle cx="760.0" cy="302.0" r="7" fill="#f59e0b"/>
    <text x="782.0" y="299" font-family="ui-sans-serif,-apple-system,'Segoe UI',Roboto,Helvetica,Arial,sans-serif" font-size="17" font-weight="700" letter-spacing="1.5" fill="#f1f5f9" text-anchor="start" opacity="1">SKEPTIC</text>
    <text x="782.0" y="320" font-family="ui-monospace,SFMono-Regular,Menlo,Consolas,'Liberation Mono',monospace" font-size="12.5" font-weight="400" letter-spacing="0" fill="#94a3b8" text-anchor="start" opacity="1">counter-retrieve  ·  find contradictions</text>
  </g><line x1="940" y1="332" x2="940" y2="369" stroke="#94a3b8" stroke-width="2" opacity="0.6"/><path d="M935 367 L940 374 L945 367" fill="none" stroke="#94a3b8" stroke-width="2" opacity="0.7"/>
  <g>
    <rect x="730.0" y="376" width="420" height="60" rx="12" fill="rgba(255,255,255,0.045)" stroke="rgba(255,255,255,0.10)"/>
    <rect x="730.0" y="376" width="5" height="60" rx="2.5" fill="#22c55e"/>
    <circle cx="760.0" cy="406.0" r="7" fill="#22c55e"/>
    <text x="782.0" y="403" font-family="ui-sans-serif,-apple-system,'Segoe UI',Roboto,Helvetica,Arial,sans-serif" font-size="17" font-weight="700" letter-spacing="1.5" fill="#f1f5f9" text-anchor="start" opacity="1">SYNTHESIZER</text>
    <text x="782.0" y="424" font-family="ui-monospace,SFMono-Regular,Menlo,Consolas,'Liberation Mono',monospace" font-size="12.5" font-weight="400" letter-spacing="0" fill="#94a3b8" text-anchor="start" opacity="1">reconcile  ·  assign confidence</text>
  </g><line x1="940" y1="436" x2="940" y2="473" stroke="#22c55e" stroke-width="2" opacity="0.6"/><path d="M935 471 L940 478 L945 471" fill="none" stroke="#22c55e" stroke-width="2" opacity="0.7"/>
  <g>
    <rect x="730.0" y="480" width="420" height="60" rx="12" fill="rgba(34,197,94,0.10)" stroke="#22c55e" stroke-opacity="0.5"/>
    <text x="754.0" y="507" font-family="ui-sans-serif,-apple-system,'Segoe UI',Roboto,Helvetica,Arial,sans-serif" font-size="14" font-weight="700" letter-spacing="1.5" fill="#22c55e" text-anchor="start" opacity="1">CITED ANSWER</text>
    <text x="754.0" y="528" font-family="ui-monospace,SFMono-Regular,Menlo,Consolas,'Liberation Mono',monospace" font-size="12.5" font-weight="400" letter-spacing="0" fill="#86efac" text-anchor="start" opacity="1">every claim mapped to a source chunk</text>
    <rect x="1000.0" y="495" width="126" height="30" rx="15" fill="rgba(34,197,94,0.18)" stroke="#22c55e" stroke-opacity="0.5"/>
    <text x="1063.0" y="514" font-family="ui-monospace,SFMono-Regular,Menlo,Consolas,'Liberation Mono',monospace" font-size="11.5" font-weight="700" letter-spacing="0.2" fill="#bbf7d0" text-anchor="middle" opacity="1">confidence: HIGH</text>
  </g>
</svg>
